<svg width="155" height="30" viewBox="0 0 155 30" fill="none" xmlns="http://www.w3.org/2000/svg">
<g clip-path="url(#clip0_12736_4643)">
<path d="M32.6885 26.2915V12.45H35.1959V24.1896H41.2921V26.2915H32.6885ZM45.7662 26.2915H43.0898L47.9627 12.45H51.0581L55.9378 26.2915H53.2614L49.5645 15.2886H49.4564L45.7662 26.2915ZM45.8541 20.8644H53.1533V22.8784H45.8541V20.8644ZM62.4513 26.2915H57.7609V12.45H62.5459C63.9202 12.45 65.1007 12.7271 66.0874 13.2813C67.0786 13.831 67.8401 14.6218 68.3718 15.6536C68.9034 16.6854 69.1693 17.9199 69.1693 19.3573C69.1693 20.7991 68.9012 22.0381 68.365 23.0744C67.8333 24.1108 67.0651 24.906 66.0604 25.4602C65.0601 26.0144 63.8571 26.2915 62.4513 26.2915ZM60.2683 24.122H62.3297C63.2939 24.122 64.0981 23.9463 64.7425 23.5949C65.3868 23.2389 65.8711 22.7095 66.1955 22.0066C66.5199 21.2992 66.6821 20.4161 66.6821 19.3573C66.6821 18.2984 66.5199 17.4198 66.1955 16.7214C65.8711 16.0185 65.3913 15.4936 64.756 15.1467C64.1252 14.7953 63.3412 14.6195 62.404 14.6195H60.2683V24.122ZM69.8249 12.45H72.6567L76.0427 18.5733H76.1779L79.5639 12.45H82.3957L77.3606 21.128V26.2915H74.86V21.128L69.8249 12.45Z" fill="#FF521D"/>
<path d="M89.4463 26.2915V12.45H94.6368C95.7002 12.45 96.5923 12.6348 97.3132 13.0042C98.0386 13.3737 98.5861 13.8919 98.9555 14.5587C99.3295 15.221 99.5165 15.9938 99.5165 16.8769C99.5165 17.7645 99.3272 18.535 98.9488 19.1883C98.5748 19.8371 98.0228 20.3395 97.2929 20.6954C96.563 21.0469 95.6664 21.2226 94.603 21.2226H90.9061V19.141H94.2651C94.8869 19.141 95.396 19.0554 95.7925 18.8842C96.189 18.7084 96.4819 18.4539 96.6711 18.1204C96.8649 17.7825 96.9618 17.368 96.9618 16.8769C96.9618 16.3858 96.8649 15.9667 96.6711 15.6198C96.4774 15.2684 96.1823 15.0025 95.7858 14.8223C95.3893 14.6376 94.8779 14.5452 94.2516 14.5452H91.9537V26.2915H89.4463ZM96.5968 20.0196L100.023 26.2915H97.2253L93.8596 20.0196H96.5968ZM101.825 26.2915V12.45H110.827V14.5519H104.332V18.3097H110.361V20.4116H104.332V24.1896H110.881V26.2915H101.825ZM113.385 26.2915V12.45H118.576C119.639 12.45 120.531 12.6483 121.252 13.0448C121.977 13.4413 122.525 13.9865 122.894 14.6804C123.268 15.3697 123.455 16.1537 123.455 17.0323C123.455 17.9199 123.268 18.7084 122.894 19.3978C122.52 20.0872 121.968 20.6301 121.238 21.0266C120.508 21.4186 119.61 21.6146 118.542 21.6146H115.102V19.5533H118.204C118.826 19.5533 119.335 19.4451 119.731 19.2288C120.128 19.0126 120.421 18.7152 120.61 18.3367C120.804 17.9582 120.9 17.5234 120.9 17.0323C120.9 16.5412 120.804 16.1087 120.61 15.7347C120.421 15.3607 120.125 15.0701 119.724 14.8628C119.328 14.6511 118.817 14.5452 118.19 14.5452H115.892V26.2915H113.385ZM125.868 26.2915H123.192L128.064 12.45H131.16L136.04 26.2915H133.363L129.666 15.2886H129.558L125.868 26.2915ZM125.956 20.8644H133.255V22.8784H125.956V20.8644ZM140.37 12.45V26.2915H137.863V12.45H140.37ZM143.085 26.2915V12.45H148.276C149.339 12.45 150.231 12.6348 150.952 13.0042C151.678 13.3737 152.225 13.8919 152.595 14.5587C152.969 15.221 153.155 15.9938 153.155 16.8769C153.155 17.7645 152.966 18.535 152.588 19.1883C152.214 19.8371 151.662 20.3395 150.932 20.6954C150.202 21.0469 149.305 21.2226 148.242 21.2226H144.545V19.141H147.904C148.526 19.141 149.035 19.0554 149.432 18.8842C149.828 18.7084 150.121 18.4539 150.31 18.1204C150.504 17.7825 150.601 17.368 150.601 16.8769C150.601 16.3858 150.504 15.9667 150.31 15.6198C150.116 15.2684 149.821 15.0025 149.425 14.8223C149.028 14.6376 148.517 14.5452 147.891 14.5452H145.593V26.2915H143.085ZM150.236 20.0196L153.662 26.2915H150.864L147.499 20.0196H150.236Z" fill="#E63330"/>
<path d="M26.4277 9.6709H20.3595C19.1028 9.6709 18.084 10.6897 18.084 11.9465V26.1687H20.7388V12.705C20.7388 12.4955 20.9086 12.3257 21.1181 12.3257H26.4277V9.6709Z" fill="#FF521D"/>
<path d="M8.22267 4.36133H14.2908C15.5476 4.36133 16.5664 5.38013 16.5664 6.63689V26.1688H13.9116V7.39542C13.9116 7.18596 13.7418 7.01615 13.5323 7.01615H8.22267V4.36133Z" fill="#FF521D"/>
<path d="M4.05079 15.3599H10.119C11.3757 15.3599 12.3945 16.3787 12.3945 17.6354V26.1688H9.73971V18.394C9.73971 18.1845 9.5699 18.0147 9.36044 18.0147H4.05079V15.3599Z" fill="#E63330"/>
</g>
<defs>
<clipPath id="clip0_12736_4643">
<rect width="155" height="30" fill="white"/>
</clipPath>
</defs>
</svg>
