<svg width="49" height="48" viewBox="0 0 49 48" fill="none" xmlns="http://www.w3.org/2000/svg">
<path d="M43.9403 20.5217H42.0503L37.1888 9.65217C36.9688 9.16039 36.61 8.74257 36.1559 8.44933C35.7018 8.15609 35.1719 8.00001 34.6303 8H14.0503C13.5088 8.00001 12.9788 8.15609 12.5247 8.44933C12.0706 8.74257 11.7118 9.16039 11.4918 9.65217L6.63033 20.5217H4.74033C4.36903 20.5217 4.01293 20.6683 3.75038 20.9292C3.48783 21.1902 3.34033 21.544 3.34033 21.913C3.34033 22.282 3.48783 22.6359 3.75038 22.8968C4.01293 23.1578 4.36903 23.3043 4.74033 23.3043H6.14033V37.2174C6.14033 37.9554 6.43533 38.6632 6.96043 39.185C7.48554 39.7068 8.19773 40 8.94033 40H13.1403C13.8829 40 14.5951 39.7068 15.1202 39.185C15.6453 38.6632 15.9403 37.9554 15.9403 37.2174V34.4348H32.7403V37.2174C32.7403 37.9554 33.0353 38.6632 33.5604 39.185C34.0855 39.7068 34.7977 40 35.5403 40H39.7403C40.4829 40 41.1951 39.7068 41.7202 39.185C42.2453 38.6632 42.5403 37.9554 42.5403 37.2174V23.3043H43.9403C44.3116 23.3043 44.6677 23.1578 44.9303 22.8968C45.1928 22.6359 45.3403 22.282 45.3403 21.913C45.3403 21.544 45.1928 21.1902 44.9303 20.9292C44.6677 20.6683 44.3116 20.5217 43.9403 20.5217ZM14.0503 10.7826H34.6303L38.9861 20.5217H9.69458L14.0503 10.7826ZM13.1403 37.2174H8.94033V34.4348H13.1403V37.2174ZM35.5403 37.2174V34.4348H39.7403V37.2174H35.5403ZM39.7403 31.6522H8.94033V23.3043H39.7403V31.6522ZM11.7403 27.4783C11.7403 27.1093 11.8878 26.7554 12.1504 26.4945C12.4129 26.2335 12.769 26.087 13.1403 26.087H15.9403C16.3116 26.087 16.6677 26.2335 16.9303 26.4945C17.1928 26.7554 17.3403 27.1093 17.3403 27.4783C17.3403 27.8473 17.1928 28.2011 16.9303 28.4621C16.6677 28.723 16.3116 28.8696 15.9403 28.8696H13.1403C12.769 28.8696 12.4129 28.723 12.1504 28.4621C11.8878 28.2011 11.7403 27.8473 11.7403 27.4783ZM31.3403 27.4783C31.3403 27.1093 31.4878 26.7554 31.7504 26.4945C32.0129 26.2335 32.369 26.087 32.7403 26.087H35.5403C35.9116 26.087 36.2677 26.2335 36.5303 26.4945C36.7928 26.7554 36.9403 27.1093 36.9403 27.4783C36.9403 27.8473 36.7928 28.2011 36.5303 28.4621C36.2677 28.723 35.9116 28.8696 35.5403 28.8696H32.7403C32.369 28.8696 32.0129 28.723 31.7504 28.4621C31.4878 28.2011 31.3403 27.8473 31.3403 27.4783Z" fill="#FF521D"/>
</svg>
