<svg width="49" height="48" viewBox="0 0 49 48" fill="none" xmlns="http://www.w3.org/2000/svg">
<path d="M34.6097 19.8668C34.6097 23.153 33.0305 26.0741 30.5859 27.9052L31.6813 29.3658C33.1581 28.2615 34.3569 26.8278 35.1822 25.1788C36.0075 23.5298 36.4366 21.7109 36.4353 19.8668H34.6097ZM24.5685 9.82567C27.2316 9.82567 29.7856 10.8836 31.6687 12.7667C33.5518 14.6497 34.6097 17.2037 34.6097 19.8668H36.4353C36.4353 16.7196 35.1851 13.7012 32.9596 11.4757C30.7341 9.25025 27.7158 8 24.5685 8V9.82567ZM14.5273 19.8668C14.5273 17.2037 15.5852 14.6497 17.4683 12.7667C19.3514 10.8836 21.9054 9.82567 24.5685 9.82567V8C21.4212 8 18.4028 9.25025 16.1774 11.4757C13.9519 13.7012 12.7017 16.7196 12.7017 19.8668H14.5273ZM18.5511 27.9052C17.3009 26.9711 16.2861 25.758 15.5875 24.3624C14.8889 22.9669 14.5259 21.4275 14.5273 19.8668H12.7017C12.7004 21.7109 13.1295 23.5298 13.9548 25.1788C14.7801 26.8278 15.9789 28.2615 17.4557 29.3658L18.5511 27.9052ZM21.8245 37.6726C21.7689 35.0029 21.2173 32.3669 20.1978 29.8989L18.5109 30.5944C19.442 32.8473 19.9496 35.2627 20.0007 37.7109L21.8245 37.6726ZM27.4257 37.4991C26.5385 37.9426 25.5603 38.1735 24.5685 38.1735C23.5767 38.1735 22.5985 37.9426 21.7113 37.4991L20.8953 39.1331C22.0358 39.7032 23.2934 40 24.5685 40C25.8436 40 27.1012 39.7032 28.2417 39.1331L27.4257 37.4991ZM28.941 29.8989C27.9207 32.3673 27.3685 35.004 27.3125 37.6744L29.1381 37.7109C29.1874 35.2627 29.695 32.8491 30.6261 30.5963L28.941 29.8989ZM28.2417 39.1331C28.5063 39 28.7295 38.7972 28.8871 38.5466C29.0448 38.2959 29.1309 38.007 29.1363 37.7109L27.3106 37.6744C27.3118 37.6374 27.3232 37.6015 27.3435 37.5705C27.3638 37.5396 27.3922 37.5149 27.4257 37.4991L28.2417 39.1331ZM20.0007 37.7109C20.006 38.007 20.0922 38.2959 20.2499 38.5466C20.4075 38.7972 20.6307 39 20.8953 39.1331L21.7113 37.4991C21.7442 37.515 21.7721 37.5396 21.792 37.5701C21.8119 37.6007 21.8232 37.6361 21.8245 37.6726L20.0007 37.7109ZM17.4557 29.3676C18.0363 29.8021 18.1677 29.9098 18.2225 29.981L19.6648 28.8619C19.4183 28.5442 19.0203 28.2594 18.5511 27.9052L17.4557 29.3676ZM20.1978 29.8989C20.039 29.5155 19.9057 29.1741 19.6648 28.8619L18.2225 29.981C18.2809 30.0577 18.3211 30.1362 18.5109 30.5944L20.1978 29.8989ZM30.5859 27.9071C30.1167 28.2576 29.7187 28.546 29.4722 28.8619L30.9145 29.981C30.9693 29.9098 31.0989 29.8021 31.6813 29.3658L30.5859 27.9071ZM30.6261 30.5963C30.8159 30.138 30.8561 30.0577 30.9163 29.981L29.4741 28.8619C29.2312 29.1741 29.098 29.5155 28.9391 29.8989L30.6261 30.5963Z" fill="#FF521D"/>
<path d="M29.1327 31.7336C26.2028 32.9055 22.9343 32.9055 20.0044 31.7336" stroke="#FF521D" stroke-width="1.87385"/>
<path d="M22.7424 27.1696V19.4105C22.7424 18.1508 21.72 17.1284 20.4603 17.1284C19.2006 17.1284 18.1782 18.1508 18.1782 19.4105C18.1782 20.6702 19.2006 21.6926 20.4603 21.6926H28.6758C29.9355 21.6926 30.9579 20.6702 30.9579 19.4105C30.9579 18.1508 29.9355 17.1284 28.6758 17.1284C27.4161 17.1284 26.3937 18.1508 26.3937 19.4105V27.1696" stroke="#FF521D" stroke-width="1.87385" stroke-linecap="round"/>
</svg>
