<svg width="511" height="410" viewBox="0 0 511 410" fill="none" xmlns="http://www.w3.org/2000/svg">
<g style="mix-blend-mode:soft-light" opacity="0.6">
<path fill-rule="evenodd" clip-rule="evenodd" d="M251.709 -3.02792e-05H228.769V10.0362H248.842C249.633 10.0362 250.275 10.6781 250.275 11.4699V82.4403H260.312V8.60244C260.312 3.85143 256.46 -3.02792e-05 251.709 -3.02792e-05ZM144.709 2.38419e-07H121.769V10.0362H141.842C142.633 10.0362 143.275 10.6781 143.275 11.47V82.4403H153.312V8.60247C153.312 3.85146 149.46 2.38419e-07 144.709 2.38419e-07ZM38.7126 4.41074e-05H15.7727V10.0363H35.8451C36.637 10.0363 37.2789 10.6782 37.2789 11.47V82.4404H47.3151V8.60251C47.3151 3.8515 43.4636 4.41074e-05 38.7126 4.41074e-05ZM61.6525 20.0725H84.5924V30.1087H64.52C63.7282 30.1087 63.0863 30.7506 63.0863 31.5424V82.4404H53.0501V28.6749C53.0501 23.9239 56.9015 20.0725 61.6525 20.0725ZM0.00150776 41.5786H22.9414C27.6924 41.5786 31.5439 45.4301 31.5439 50.1811V82.4404H21.5077V53.0486C21.5077 52.2568 20.8658 51.6149 20.0739 51.6149H0.00150776V41.5786ZM61.6534 129.052H84.5933V139.088H64.5209C63.7291 139.088 63.0872 139.73 63.0872 140.522V191.419H53.051V137.654C53.051 132.903 56.9024 129.052 61.6534 129.052ZM15.7736 108.979H38.7135C43.4645 108.979 47.316 112.831 47.316 117.582V191.419H37.2798V120.449C37.2798 119.657 36.6378 119.015 35.846 119.015H15.7736V108.979ZM22.9423 150.558H0.00239754V160.594H20.0748C20.8667 160.594 21.5086 161.236 21.5086 162.028V191.419H31.5448V159.16C31.5448 154.409 27.6933 150.558 22.9423 150.558ZM84.5918 238.031H61.6519C56.9009 238.031 53.0494 241.882 53.0494 246.633V300.399H63.0857V249.501C63.0857 248.709 63.7276 248.067 64.5194 248.067H84.5918V238.031ZM38.712 217.958H15.7721V227.994H35.8445C36.6363 227.994 37.2783 228.636 37.2783 229.428V300.399H47.3145V226.561C47.3145 221.81 43.463 217.958 38.712 217.958ZM0.000889301 259.537H22.9408C27.6918 259.537 31.5433 263.388 31.5433 268.139V300.399H21.5071V271.007C21.5071 270.215 20.8652 269.573 20.0733 269.573H0.000889301V259.537ZM61.651 347.01H84.5909V357.046H64.5185C63.7267 357.046 63.0848 357.688 63.0848 358.48V409.378H53.0486V355.612C53.0486 350.861 56.9 347.01 61.651 347.01ZM15.7712 326.937H38.7111C43.4621 326.937 47.3136 330.789 47.3136 335.54V409.378H37.2774V338.407C37.2774 337.616 36.6355 336.974 35.8436 336.974H15.7712V326.937ZM22.9399 368.516H0V378.552H20.0724C20.8643 378.552 21.5062 379.194 21.5062 379.986V409.378H31.5424V377.118C31.5424 372.367 27.6909 368.516 22.9399 368.516ZM190.589 20.0724H167.649C162.898 20.0724 159.047 23.9239 159.047 28.6749V82.4403H169.083V31.5424C169.083 30.7505 169.725 30.1086 170.516 30.1086H190.589V20.0724ZM105.998 41.5786H128.938C133.689 41.5786 137.54 45.43 137.54 50.1811V82.4403H127.504V53.0486C127.504 52.2567 126.862 51.6148 126.07 51.6148H105.998V41.5786ZM167.649 129.052H190.589V139.088H170.516C169.725 139.088 169.083 139.73 169.083 140.521V191.419H159.047V137.654C159.047 132.903 162.898 129.052 167.649 129.052ZM121.769 108.979H144.709C149.46 108.979 153.312 112.831 153.312 117.582V191.419H143.275V120.449C143.275 119.657 142.633 119.015 141.842 119.015H121.769V108.979ZM128.938 150.558H105.998V160.594H126.07C126.862 160.594 127.504 161.236 127.504 162.028V191.419H137.54V159.16C137.54 154.409 133.689 150.558 128.938 150.558ZM190.589 238.031H167.649C162.898 238.031 159.047 241.882 159.047 246.633V300.399H169.083V249.501C169.083 248.709 169.725 248.067 170.516 248.067H190.589V238.031ZM144.709 217.958H121.769V227.994H141.842C142.633 227.994 143.275 228.636 143.275 229.428V300.399H153.312V226.561C153.312 221.81 149.46 217.958 144.709 217.958ZM105.998 259.537H128.938C133.689 259.537 137.54 263.388 137.54 268.139V300.399H127.504V271.007C127.504 270.215 126.862 269.573 126.07 269.573H105.998V259.537ZM167.649 347.01H190.589V357.046H170.516C169.725 357.046 169.083 357.688 169.083 358.48V409.378H159.047V355.612C159.047 350.861 162.898 347.01 167.649 347.01ZM121.769 326.937H144.709C149.46 326.937 153.312 330.789 153.312 335.54V409.378H143.275V338.407C143.275 337.615 142.633 336.974 141.842 336.974H121.769V326.937ZM128.938 368.516H105.998V378.552H126.07C126.862 378.552 127.504 379.194 127.504 379.986V409.378H137.54V377.118C137.54 372.367 133.689 368.516 128.938 368.516ZM297.589 20.0724H274.649C269.898 20.0724 266.047 23.9239 266.047 28.6749V82.4403H276.083V31.5424C276.083 30.7505 276.725 30.1086 277.516 30.1086H297.589V20.0724ZM212.998 41.5786H235.938C240.689 41.5786 244.54 45.43 244.54 50.181V82.4403H234.504V53.0485C234.504 52.2567 233.862 51.6148 233.07 51.6148H212.998V41.5786ZM274.65 129.052H297.59V139.088H277.518C276.726 139.088 276.084 139.73 276.084 140.521V191.419H266.048V137.654C266.048 132.903 269.899 129.052 274.65 129.052ZM228.77 108.979H251.71C256.461 108.979 260.313 112.831 260.313 117.582V191.419H250.276V120.449C250.276 119.657 249.634 119.015 248.843 119.015H228.77V108.979ZM235.939 150.558H212.999V160.594H233.071C233.863 160.594 234.505 161.236 234.505 162.028V191.419H244.541V159.16C244.541 154.409 240.69 150.558 235.939 150.558ZM297.589 238.031H274.649C269.898 238.031 266.047 241.882 266.047 246.633V300.399H276.083V249.501C276.083 248.709 276.725 248.067 277.516 248.067H297.589V238.031ZM251.709 217.958H228.769V227.994H248.842C249.633 227.994 250.275 228.636 250.275 229.428V300.399H260.312V226.561C260.312 221.81 256.46 217.958 251.709 217.958ZM212.998 259.537H235.938C240.689 259.537 244.54 263.388 244.54 268.139V300.399H234.504V271.007C234.504 270.215 233.862 269.573 233.07 269.573H212.998V259.537ZM274.649 347.01H297.589V357.046H277.516C276.725 357.046 276.083 357.688 276.083 358.48V409.378H266.047V355.612C266.047 350.861 269.898 347.01 274.649 347.01ZM228.769 326.937H251.709C256.46 326.937 260.312 330.789 260.312 335.54V409.378H250.275V338.407C250.275 337.615 249.633 336.974 248.842 336.974H228.769V326.937ZM235.938 368.516H212.998V378.552H233.07C233.862 378.552 234.504 379.194 234.504 379.986V409.378H244.54V377.118C244.54 372.367 240.689 368.516 235.938 368.516ZM404.596 20.0746H381.656C376.905 20.0746 373.053 23.9261 373.053 28.6771V82.4425H383.09V31.5446C383.09 30.7527 383.732 30.1108 384.523 30.1108H404.596V20.0746ZM358.716 0.00218225H335.776V10.0384H355.849C356.64 10.0384 357.282 10.6803 357.282 11.4721V82.4425H367.318V8.60465C367.318 3.85364 363.467 0.00218225 358.716 0.00218225ZM320.005 41.5808H342.945C347.696 41.5808 351.547 45.4322 351.547 50.1832V82.4425H341.511V53.0507C341.511 52.2589 340.869 51.617 340.077 51.617H320.005V41.5808ZM381.655 129.054H404.595V139.09H384.522C383.731 139.09 383.089 139.732 383.089 140.524V191.422H373.052V137.656C373.052 132.905 376.904 129.054 381.655 129.054ZM335.775 108.981H358.715C363.466 108.981 367.318 112.833 367.318 117.584V191.422H357.281V120.451C357.281 119.659 356.639 119.017 355.848 119.017H335.775V108.981ZM342.944 150.56H320.004V160.596H340.076C340.868 160.596 341.51 161.238 341.51 162.03V191.422H351.546V159.162C351.546 154.411 347.695 150.56 342.944 150.56ZM404.596 238.033H381.656C376.905 238.033 373.053 241.884 373.053 246.635V300.401H383.09V249.503C383.09 248.711 383.732 248.069 384.523 248.069H404.596V238.033ZM358.716 217.96H335.776V227.997H355.849C356.64 227.997 357.282 228.639 357.282 229.43V300.401H367.318V226.563C367.318 221.812 363.467 217.96 358.716 217.96ZM320.005 259.539H342.945C347.696 259.539 351.547 263.39 351.547 268.141V300.401H341.511V271.009C341.511 270.217 340.869 269.575 340.077 269.575H320.005V259.539ZM487.657 20.0745H510.597V30.1107H490.524C489.733 30.1107 489.091 30.7526 489.091 31.5444V82.4424H479.054V28.677C479.054 23.9259 482.906 20.0745 487.657 20.0745ZM441.777 0.00206017H464.717C469.468 0.00206017 473.319 3.85352 473.319 8.60453V82.4424H463.283V11.472C463.283 10.6802 462.641 10.0383 461.849 10.0383H441.777V0.00206017ZM448.946 41.5807H426.006V51.6169H446.078C446.87 51.6169 447.512 52.2588 447.512 53.0506V82.4424H457.548V50.1831C457.548 45.4321 453.697 41.5807 448.946 41.5807ZM510.596 129.054H487.656C482.905 129.054 479.053 132.905 479.053 137.656V191.422H489.09V140.524C489.09 139.732 489.732 139.09 490.523 139.09H510.596V129.054ZM464.716 108.981H441.776V119.017H461.849C462.64 119.017 463.282 119.659 463.282 120.451V191.422H473.318V117.584C473.318 112.833 469.467 108.981 464.716 108.981ZM426.005 150.56H448.945C453.696 150.56 457.547 154.411 457.547 159.162V191.422H447.511V162.03C447.511 161.238 446.869 160.596 446.077 160.596H426.005V150.56ZM487.656 238.033H510.596V248.069H490.523C489.732 248.069 489.09 248.711 489.09 249.503V300.401H479.053V246.635C479.053 241.884 482.905 238.033 487.656 238.033ZM441.776 217.96H464.716C469.467 217.96 473.318 221.812 473.318 226.563V300.401H463.282V229.43C463.282 228.639 462.64 227.997 461.849 227.997H441.776V217.96ZM448.945 259.539H426.005V269.575H446.077C446.869 269.575 447.511 270.217 447.511 271.009V300.401H457.547V268.141C457.547 263.39 453.696 259.539 448.945 259.539Z" fill="url(#paint0_linear_12716_8754)"/>
</g>
<defs>
<linearGradient id="paint0_linear_12716_8754" x1="-351.457" y1="-231.285" x2="363.255" y2="373.425" gradientUnits="userSpaceOnUse">
<stop stop-color="white"/>
<stop offset="1" stop-color="white" stop-opacity="0"/>
</linearGradient>
</defs>
</svg>
