<svg width="49" height="48" viewBox="0 0 49 48" fill="none" xmlns="http://www.w3.org/2000/svg">
<path d="M36.1715 28.0411H11.8705M24.021 39V36.4889M32.5122 39V36.4889M15.5298 39V36.4889M37.021 39V38.9984C36.4581 36.8854 36.1727 34.712 36.1715 32.5298V23.8403C36.1717 23.4493 36.0923 23.062 35.938 22.7007C35.7836 22.3394 35.5572 22.0111 35.2718 21.7346C34.9863 21.4581 34.6474 21.2388 34.2745 21.0892C33.9015 20.9397 33.5017 20.8628 33.0981 20.863H27.0366V12.0868C27.0366 10.505 25.8138 9.08685 24.1825 9.00415C23.7735 8.98301 23.3643 9.04279 22.9799 9.17984C22.5956 9.31689 22.244 9.52834 21.9467 9.80131C21.6494 10.0743 21.4127 10.403 21.2508 10.7675C21.089 11.132 21.0055 11.5246 21.0054 11.9214V20.863H14.9439C14.5403 20.8628 14.1405 20.9397 13.7675 21.0892C13.3945 21.2388 13.0557 21.4581 12.7702 21.7346C12.4848 22.0111 12.2584 22.3394 12.104 22.7007C11.9497 23.062 11.8703 23.4493 11.8705 23.8403V32.5298C11.8694 34.7125 11.584 36.8865 11.021 39H37.021Z" stroke="#FF521D" stroke-width="2.54825" stroke-linecap="round" stroke-linejoin="round"/>
</svg>
